<svg xmlns="http://www.w3.org/2000/svg" xmlns:xlink="http://www.w3.org/1999/xlink" style="display: none;">
    <defs>
        <symbol id="icon-location" viewBox="0 0 64 64">
            <title>location</title>
            <path class="path1" d="M22.1 1.7c-5.3 2.7-10 8.1-11.6 13.6-3.3 11-1.5 16.4 10.9 34.6 5.4 7.8 10.1 14.1 10.6 14.1s5.4-6.6 10.9-14.6c11.6-16.9 13.3-21.7 11.3-31.2-1.4-6.7-4.4-11.4-9.7-14.9-5.2-3.5-17-4.4-22.4-1.6zM42.1 6c7.6 5 11.1 14.6 8.6 23.1-1.3 4.3-17.2 28.9-18.7 28.9s-17.4-24.6-18.7-28.8c-1-3.7-1.1-5.8-0.3-9.9 1.5-7.1 4-10.2 11.4-14.6 4.3-2.5 12.9-1.9 17.7 1.3z"></path>
            <path class="path2" d="M26.2 16.3c-4.4 4.7-2.1 12.7 4.2 14.3 5.4 1.3 11.5-4.8 10.2-10.2-1.6-6.4-10-8.8-14.4-4.1zM35.1 18c2.3 1.3 2.6 6.2 0.5 7.9-4.6 3.8-11.1-2.5-7.1-6.9 2-2.2 3.7-2.5 6.6-1z"></path>
        </symbol>
        <symbol id="icon-soilType" viewBox="0 0 64 64">
            <title>soilType</title>
            <path class="path1" d="M36.7 7.7c-2.7 0.7-4.1 5.1-2.4 7.7 1.2 1.8 1.2 2.4 0 4.2-2.8 4.3 1.6 9.5 6.7 7.9 1.7-0.5 2-0.2 2 2.4 0 2.9-0.2 3-3 2.4-2.2-0.4-3-0.2-3 0.9 0 1.9 2 3.8 4.2 3.8 1.6 0 1.8 0.9 1.8 7.5v7.5h-7c-5.5 0-6.8-0.3-6.4-1.4 0.3-0.8 2.1-1.7 4-2 3.8-0.8 5.4-3 5.4-7.5 0-3.5-1.2-4.5-3.7-3.2-1 0.5-3 1.4-4.5 2-2.6 1-2.8 1.5-2.8 6.2 0 7-1.4 5.3-2-2.4-0.5-6-0.6-6.1-3.7-6.8-1.8-0.3-3.9-1.1-4.6-1.8-1.9-1.5-2.7-0.4-2.7 3.5 0 5 0.9 6.3 4.8 7s5.2 1.8 5.2 4.6c0 2.5-3.8 2.3-5.8-0.2-1.9-2.3-7.8-2.9-14.7-1.3-4.1 0.9-5.8 3.4-3.6 5.6 2 2 15.7 2.5 17.5 0.7 0.6-0.6 10.2-1 23.3-1 14.2 0 22.3-0.4 22.3-1s-4-1-10-1c-9.7 0-10-0.1-10-2.3 0-1.6 0.9-2.6 3-3.4 1.7-0.6 3-1.9 3-2.8 0-1.3-0.7-1.6-3-1.3l-3 0.5v-8.4c0-8.1 0.1-8.3 2-7.3 4.9 2.6 9.7-2.8 6.6-7.5-0.9-1.4-1.2-2.5-0.7-2.5 1.2 0 2.2-4.5 1.5-6.5-1.1-2.6-5.3-3.8-7.8-2.1-1.9 1.2-2.5 1.2-4.1 0-1-0.8-2.1-1.3-2.4-1.3-0.3 0.1-1.4 0.3-2.4 0.6zM40.8 10.2c0.7 0.7 1.2 1.8 1.2 2.6 0 1.2-0.3 1.2-1.5 0.2-2-1.7-3.2-0.5-1.5 1.5 1 1.3 0.9 1.5-0.9 1.5-1.1 0-2.1-0.2-2.1-0.4s-0.3-1.1-0.6-1.9c-0.5-1.4 1.9-4.7 3.5-4.7 0.4 0 1.2 0.5 1.9 1.2zM50.4 10.6c2 1.9 2 2.9 0 4.8-1.9 2-4 1-2.3-1 1.6-1.9 0.4-3-1.6-1.4-1.2 1-1.5 1-1.5-0.2 0-1.5 1.9-3.8 3.1-3.8 0.4 0 1.5 0.7 2.3 1.6zM44.4 18.1c-0.3 0.5-1 0.7-1.5 0.3-0.5-0.3-0.7-1-0.3-1.5 0.3-0.5 1-0.7 1.5-0.3 0.5 0.3 0.7 1 0.3 1.5zM39 20.5c-1.6 2-0.5 3.2 1.4 1.6 2-1.7 3 0.4 1 2.3-0.8 0.9-1.9 1.6-2.4 1.6-1 0-4-2.9-4-3.9 0-1.2 2.3-3.1 3.8-3.1 1.2 0 1.2 0.3 0.2 1.5zM51.4 21.2c0.8 1.4 0.7 2.2-0.7 3.5-2 2.1-5 0.9-5.6-2.3-0.3-1.6-0.1-1.7 1.3-0.5 2.1 1.8 3.3 0.6 1.5-1.5-1.2-1.4-1.1-1.6 0.5-1.3 1 0.2 2.4 1.2 3 2.1zM21 39.3c0 0.6 0.7 1.9 1.7 2.9 1.5 1.7 1.5 1.8-0.1 1.8-3.1 0-5.6-2-5.6-4.4 0-1.9 0.4-2.3 2-1.9 1.1 0.3 2 1 2 1.6zM36.6 43.3c-0.4 1.6-1.6 2.7-3.2 3.1-3.3 0.9-3.9 0.3-1.9-1.8 0.9-0.9 1.4-2 1-2.5-0.3-0.5 0.5-1.1 1.7-1.3 3-0.5 3.2-0.3 2.4 2.5zM13.7 50.6c0.9 2.4-2.4 4.6-4.9 3.3-1.4-0.8-1.6-1.4-0.8-2.9 1.3-2.4 4.8-2.6 5.7-0.4zM17.5 50.9c0.3 0.5 0.1 1.2-0.5 1.6-0.5 0.3-1-0.1-1-0.9 0-1.8 0.6-2.1 1.5-0.7zM5 52.5c0 0.9-0.6 1.2-1.5 0.9-0.8-0.4-1.5-1-1.5-1.5s0.7-0.9 1.5-0.9c0.8 0 1.5 0.7 1.5 1.5z"></path>
        </symbol>
        <symbol id="icon-soilDrainage" viewBox="0 0 64 64">
            <title>soilDrainage</title>
            <path class="path1" d="M38.8 2.7c-1.8 1.4-6.3 5.6-10 9.2-7.8 7.6-8.5 10.2-4.2 16.5 2.3 3.3 2.4 3.8 0.8 3.1-1-0.5-3.9-1-6.4-1.3-3.5-0.3-5.3 0.2-8 2-3.4 2.3-5.3 5.8-3.1 5.8 0.5 0 2.7-1.1 4.7-2.5s4.7-2.5 5.9-2.5c1.2 0 3.9 1.1 5.9 2.5s4.3 2.5 5 2.5c0.7 0 2.2 1.3 3.4 3 3.8 5.1 6.2 4.2 16.9-6.2 13.3-13 14.4-16 7.8-20.4-2-1.3-2.5-2.5-2.5-5.6 0-8.3-9.1-11.8-16.2-6.1zM50 5c1.1 1.1 2 2.9 2 4 0 1.8-0.4 1.7-4.9-1.2-2.7-1.8-4.7-3.6-4.5-4 1-1.5 5.4-0.8 7.4 1.2zM49.5 13.5c4.7 3 8.5 5.9 8.5 6.3 0 1.3-16.8 19-19.1 20.3-1.7 0.9-2.7-0.2-7.9-8.3-3.3-5.1-6-9.7-6-10.2 0-1.8 12.4-13.6 14.2-13.6 1 0 5.6 2.5 10.3 5.5z"></path>
            <path class="path2" d="M5.7 47.2c-3.7 8.9-4 10.4-2.6 13 1.6 3.1 2.8 3.8 6.6 3.8 3.9 0 7.3-3 7.3-6.3-0.1-3.5-5.6-16.2-7.2-16.5-1-0.2-2.4 1.7-4.1 6zM12.4 53.8c1.5 4.3 0.6 7.2-2.2 7.2-4.3 0-5.2-3.6-2.5-10.1 1.8-4.5 2.2-4.3 4.7 2.9z"></path>
        </symbol>
        <symbol id="icon-topography" viewBox="0 0 64 64">
            <title>topography</title>
            <path class="path1" d="M34 16.9c-2.5 5.3-2.9 5.8-4.6 4.1-0.7-0.7-1.9-0.4-3.7 1-1.5 1.2-3.4 2-4.4 1.8-1.3-0.2-4.1 3.1-10.3 12.4-4.7 7-9.1 12.7-9.7 12.8-0.7 0-1.3 0.7-1.3 1.5 0 2.4 15.9 2.1 20-0.4 3.1-1.8 3.2-1.8 7.1 0.3 3.7 2 4.1 2 6.7 0.5 2.4-1.4 3.1-1.4 4.7-0.3 2.8 2 25.5 2 25.5 0 0-0.8-0.4-1.6-0.8-1.8s-4.8-7.7-9.6-16.8c-4.9-9.1-9.3-17.1-10-17.7-0.6-0.7-2.5-1.5-4.2-1.9-2.8-0.5-3.1-0.3-5.4 4.5zM43.1 19.7l2.1 3.3h-2.4c-1.3 0-2.9 0.5-3.6 1.2-0.9 1-1.6 0.9-2.8-0.4-1.5-1.5-1.5-1.9 0.2-4.7 2.3-3.8 3.8-3.6 6.5 0.6zM30.3 28c2.4 3.9 1.2 5.9-1.7 3.1l-2.2-2.1-2.8 2.9c-2.4 2.5-3.2 2.8-4.7 1.8-1.7-1-1.7-1.2 0.2-3.9 1.3-1.7 3-2.8 4.4-2.8 1.3 0 2.7-0.5 3-1 1-1.7 2-1.2 3.8 2zM36 27.5c1.6 1.9 2.9 1.9 5 0 2.9-2.6 6.2-0.4 10 6.7 1.8 3.4 4.4 8.2 5.7 10.5l2.5 4.3h-10.9l-7.7-11.5c-4.2-6.3-7.2-11.5-6.7-11.5s1.4 0.7 2.1 1.5zM32.7 35.7c1.6-1.5 2-1.2 6.5 5.5 2.6 4 4.5 7.4 4.3 7.7-0.3 0.2-2-0.4-3.8-1.4-3-1.6-3.6-1.6-6.2-0.2-2.7 1.4-3.2 1.3-6.7-0.6l-3.6-2.2-4 2.3c-3.5 1.9-12.2 3.2-12.2 1.7 0-0.3 2-3.5 4.3-7 4.3-6.4 4.4-6.5 6.2-4.5 2.5 2.7 3.9 2.5 6.7-0.9l2.3-2.9 2.3 2.1c2.1 1.9 2.4 2 3.9 0.4z"></path>
        </symbol>
        <symbol id="icon-precipitation" viewBox="0 0 64 64">
            <title>precipitation</title>
            <path class="path1" d="M22.5 5.7c-4.3 2.2-8.2 6.1-9.5 9.4-0.7 1.6-1.7 2.9-2.2 2.9-2.6 0-8 3.6-9.3 6.1-2.4 4.6-1.9 11.2 1 14.8 3.7 4.3 11.5 6.5 11.5 3.1 0-0.5-1.3-1.1-2.9-1.5-7.9-1.7-10.8-10.9-5.2-16.6 1.7-1.7 4-2.9 5.5-2.9 1.4 0 2.6-0.4 2.6-0.8 0-0.5 1.3-2.9 3-5.3 5.3-8.1 15.1-10.3 22.6-5.3 5.4 3.6 5.7 4.5 2.4 6.5-5.9 3.6-5.1 6.4 0.9 3.1 4.5-2.6 8.1-2.8 12-0.8 5.9 3.1 8.1 10.9 4.6 16.2-1.9 2.9-7.2 6.4-9.8 6.4-1.1 0-1.7 0.5-1.4 1.2 0.6 1.7 6.5 1.2 9.5-0.8 5.8-3.8 8.1-14.3 4.5-20.4-1.9-3.3-8-7-11.5-7-1.5 0-3.2-1.1-4.6-3-4.8-6.4-16.6-9.1-23.7-5.3z"></path>
            <path class="path2" d="M19.1 44.1c-1.4 4.2-1.4 4.9 0.3 4.9 1.2 0 3.6-4.7 3.6-7.1 0-2.3-2.9-0.5-3.9 2.2z"></path>
            <path class="path3" d="M29 43.6c-1.4 3.5-1.2 5.4 0.4 5.4 1.4 0 2.6-2.9 2.6-6.3 0-2.6-1.9-2.1-3 0.9z"></path>
            <path class="path4" d="M38.4 44.5c-0.3 2-0.4 3.9 0 4.2 1 1.1 2.5-1 3.2-4.5 0.5-2.5 0.3-3.2-0.9-3.2-1 0-1.8 1.3-2.3 3.5z"></path>
            <path class="path5" d="M15.4 55.5c-0.3 2-0.4 3.9 0 4.2 1 1.1 2.5-1 3.2-4.5 0.5-2.5 0.3-3.2-0.9-3.2-1 0-1.8 1.3-2.3 3.5z"></path>
            <path class="path6" d="M25.6 53.7c-0.2 1-0.7 2.8-1.1 4-1 3.7 2.1 2.8 3.4-0.8 1.4-4.2 1.4-4.9-0.3-4.9-0.8 0-1.7 0.8-2 1.7z"></path>
            <path class="path7" d="M35.7 52.7c-0.3 0.5-0.8 2.3-1.2 4.1-0.5 2.4-0.3 3.2 0.8 3.2 1.4 0 3.9-6.4 2.9-7.4-0.8-0.8-2-0.7-2.5 0.1z"></path>
        </symbol>
        <symbol id="icon-climate" viewBox="0 0 64 64">
            <title>climate</title>
            <path class="path1" d="M19.3 2c-6.8 2.8-15.4 11.9-17.8 19-2.4 7.2-1.8 18.9 1.3 25.2 3 6 9 12 15 15 6.8 3.3 21.6 3.3 28.4 0 6-3 12-9 15-15 3.2-6.5 3.7-18.2 1.2-25.4-2.3-6.2-10-15-15.8-18-6.1-3.2-20.2-3.6-27.3-0.8zM40.9 4.1l3.2 1.1-4.2 3.6c-2.9 2.5-5.4 3.7-7.8 3.9-4.2 0.3-6.5 2.7-5 5.4 1.1 2.2-0.1 2.5-3.2 0.9-1.6-0.9-6.9-9.7-6.9-11.5 0-0.3 1.9-1.5 4.3-2.5 4.8-2.2 14.6-2.6 19.6-0.9zM52.5 11.7c11.3 10.9 11.3 29.5 0 40.8-6.2 6.2-10.9 8-20.5 8s-14.3-1.8-20.5-8c-5.5-5.6-7.8-10.9-8.2-19.5-0.4-6.9-0.2-8 2.9-13.9 1.8-3.5 4.3-7 5.4-7.8 2-1.3 2.3-1.1 5.2 3.9 2.9 5.3 5.3 7.1 10.2 8.2 2.8 0.6 5 5 5 10 0 1.5 1 4.4 2.2 6.5 2 3.5 2.1 4.2 0.9 7.9-2.3 7 0.2 9.1 6.3 5.3 4.5-2.8 11.3-11.5 12-15.5 0.6-3 0.1-4.2-3-8.3-3.5-4.6-9.4-8-11.5-6.7-0.5 0.3-1.6-0.2-2.5-1.1-1.5-1.5-1.5-1.7 0.5-3.1 1.1-0.8 2.1-2.1 2.1-2.9 0-1.6 6.6-7.5 8.4-7.5 0.7 0 3 1.7 5.1 3.7zM38.9 26c4.2 0 5.5 0.9 9.3 6 2.3 3.2 2.5 3.9 1.3 6.5-1.5 3.6-9.6 12.5-11.4 12.5-0.8 0-0.9-0.5-0.1-1.9 1.5-3 1.2-8.2-0.7-10.3-0.9-1.1-2-4.2-2.4-7.1-0.3-2.9-0.9-6.1-1.3-7.2-0.7-1.8-0.6-1.8 0.4-0.3 0.7 1.2 2.4 1.8 4.9 1.8z"></path>
        </symbol>
        <symbol id="icon-land" viewBox="0 0 64 64">
            <title>land</title>
            <path class="path1" d="M24.3 8.9c-3.5 4.9-6.3 9.1-6.3 9.5 0 0.3 0.9 0.6 2 0.6 1.8 0 1.2 1.3-4 9-7.9 11.7-8 12-4.1 12 1.7 0 3.1 0.2 3.1 0.4s-2 3.9-4.5 8.2c-2.5 4.4-4.5 8.5-4.5 9.1 0 1.6 1.4 1.6 12.5-0.2 12.8-2.1 12.5-2.2 12.5 2.5 0 2.2 0.5 4 1 4 0.6 0 1-1.8 1-4 0-4.7-0.3-4.6 12.5-2.5 11.1 1.8 12.5 1.8 12.5 0.2 0-0.6-2-4.7-4.5-9.1-2.5-4.3-4.5-8-4.5-8.2s1.4-0.4 3.1-0.4c3.9 0 3.8-0.3-4.1-12-5.2-7.7-5.8-9-4-9 1.1 0 2-0.3 2-0.6 0-1.7-12.7-18.3-14-18.3-0.8 0-4.3 4-7.7 8.8zM37.7 10.8c3.1 4.4 4 6.2 2.9 6.2-2.7 0-1.8 2.1 4.4 11.5l6 9-3 0.3c-1.6 0.2-3 0.5-3 0.8s2.1 4.1 4.6 8.5c2.6 4.4 4.4 8.2 4.1 8.5-0.6 0.6-18.3-1.8-19.9-2.7-0.8-0.5-0.2-1.6 2-3.4 1.8-1.5 3.2-3.1 3.2-3.6 0-1.4-2.2-1-4.2 0.8-1.7 1.5-1.8 1.5-1.8-1.5 0-2.1 0.9-3.8 3-5.5 1.7-1.4 3-3 3-3.6 0-1.5-0.6-1.4-3.5 0.5-2.5 1.6-2.5 1.6-2.5-1.4 0-2.3 0.9-3.7 3.2-5.6 2.4-1.8 3-2.8 2.2-3.6s-1.4-0.6-2.4 0.5c-2.2 2.6-3 1.7-3-3.5 0-2.8-0.4-5-1-5-0.5 0-1 2.2-1 5 0 5.2-0.8 6.1-3 3.5-1-1.1-1.6-1.3-2.4-0.5s-0.2 1.8 2.2 3.6c2.3 1.9 3.2 3.3 3.2 5.6 0 3 0 3-2.5 1.4-2.9-1.9-3.5-2-3.5-0.5 0 0.6 1.3 2.2 3 3.6 2.1 1.7 3 3.4 3 5.5 0 3-0.1 3-1.8 1.5-2-1.8-4.2-2.2-4.2-0.8 0 0.5 1.4 2.1 3.2 3.6 2.2 1.8 2.8 2.9 2 3.4-1.6 0.9-19.3 3.3-19.9 2.7-0.3-0.3 1.5-4.1 4.1-8.5 2.5-4.4 4.6-8.2 4.6-8.5s-1.4-0.6-3-0.8l-3-0.3 6-9c6.2-9.4 6.9-11.1 4.6-11.7-1-0.2 0-2.2 3.1-6.6 2.5-3.5 5-6.1 5.5-6 0.6 0.2 3 3.2 5.5 6.6z"></path>
        </symbol>
        <symbol id="icon-lid" viewBox="0 0 64 64">
            <title>lid</title>
            <path class="path1" d="M11 19.5c0 10.4 0.2 12.5 1.5 12.5s1.5-2.1 1.5-12.5c0-10.4-0.2-12.5-1.5-12.5s-1.5 2.1-1.5 12.5z"></path>
            <path class="path2" d="M31 12c0 3.7 0.4 5 1.3 4.7 0.7-0.2 1.2-2.1 1.2-4.7s-0.5-4.5-1.2-4.8c-0.9-0.2-1.3 1.1-1.3 4.8z"></path>
            <path class="path3" d="M50 17.5c0 8.7 0.3 10.5 1.5 10.5s1.5-1.8 1.5-10.5c0-8.7-0.3-10.5-1.5-10.5s-1.5 1.8-1.5 10.5z"></path>
            <path class="path4" d="M21 20c-2.7 2.7-2.5 5.6 0.5 8.5 1.6 1.7 3.5 2.5 6 2.5h3.5v13.1c0 10 0.3 13 1.3 12.6 0.9-0.3 1.2-3.8 1.2-13v-12.5l3.7-0.4c2.4-0.2 3.4 0 2.8 0.6s-1 2.5-1 4.2c0 5 2.8 6.4 12.5 6.4 9.8 0 12.5-1.4 12.5-6.5 0-5-2.8-6.5-12.2-6.5h-7.7l0.6-3.4c0.4-2.6 0-3.9-1.6-5.5-1.8-1.8-3.3-2.1-11.1-2.1-7.7 0-9.3 0.3-11 2zM40.5 22.4c1.1 0.8 1.6 1.9 1.2 3-0.9 2.3-18.2 2.4-19.1 0.1-0.3-0.8 0.2-2.1 1-3 2-2 14.2-2.1 16.9-0.1zM59.1 33c1 0.6 1.9 1.7 1.9 2.5s-0.9 1.9-1.9 2.5c-2.5 1.3-12.7 1.3-15.2 0-2.4-1.3-2.5-3.6-0.1-4.9 2.2-1.4 12.8-1.4 15.3-0.1z"></path>
            <path class="path5" d="M1.6 35.6c-1.9 1.8-2.1 7.5-0.4 9.2 1.9 1.9 20.2 1.6 22.2-0.4s2-6.8 0-8.8c-2.2-2.3-19.6-2.3-21.8 0zM21 38.5c0.7 0.8 1 2.2 0.6 3-0.5 1.3-2.2 1.5-9.3 1.3-7.7-0.3-8.8-0.5-9.1-2.2-0.6-2.8 1.5-3.6 9.4-3.6 5.1 0 7.5 0.4 8.4 1.5z"></path>
            <path class="path6" d="M50 50c0 5.6 0.3 7 1.5 7s1.5-1.4 1.5-7c0-5.6-0.3-7-1.5-7s-1.5 1.4-1.5 7z"></path>
            <path class="path7" d="M11 52c0 3.8 0.4 5 1.5 5s1.5-1.2 1.5-5c0-3.8-0.4-5-1.5-5s-1.5 1.2-1.5 5z"></path>
        </symbol>
        <symbol id="icon-cost" viewBox="0 0 64 64">
            <title>cost</title>
            <path class="path1" d="M21.4 1.1c-0.2 0.4 0.1 2 0.7 3.6 0.6 1.5 1.2 5.1 1.3 8 0.2 5.2 0.2 5.3-6 11.3-7.6 7.5-10.5 13.2-10.6 20.9-0.1 8.6 4.5 15.4 12.1 18 4.4 1.4 21.8 1.4 26.2 0 7.6-2.6 12.2-9.4 12.1-18-0.1-7.7-3-13.4-10.5-20.8-6.2-6-6.3-6.2-6.1-11.4 0.1-2.8 0.4-6.8 0.8-8.8l0.7-3.5h-10.1c-5.6 0-10.3 0.3-10.6 0.7zM37.9 6.5c-0.5 1.6-0.9 3.1-0.9 3.2 0 0.2-0.4 0.3-1 0.3-0.5 0-1-1-1-2.1 0-1.8-0.2-1.9-1.5-0.9-1.2 1-1.8 1-3 0-1.3-1-1.5-0.9-1.5 0.9 0 1.1-0.4 2.1-0.9 2.1-1.2 0-1.7-0.8-2.4-4-0.6-2.5-0.6-2.5 6.2-2.5h6.8l-0.8 3zM35.3 13.7c-1.8 0.2-4.8 0.2-6.5 0-1.8-0.2-0.4-0.4 3.2-0.4s5 0.2 3.3 0.4zM29 20c0.5 0 1.4-0.8 2-1.8 1-1.6 1-1.6 2 0 1.3 2.2 3 2.3 3 0.3 0-2.2 15 14.3 16.7 18.3 3.3 7.9 1.3 16.9-4.7 21.2-6.8 4.9-25.2 4.9-32 0-6-4.2-8-13.2-4.8-21 1.7-4.1 16.2-20 16.6-18.3 0.2 0.7 0.7 1.3 1.2 1.3z"></path>
            <path class="path2" d="M23.6 28.9c-4.6 3-6.6 7-6.6 12.9 0 9.6 5.6 15.2 15 15.2s15-5.6 15-15.2c0-9.3-5.5-14.8-15-14.8-3.7 0-6.4 0.6-8.4 1.9zM38.7 31.7c10.1 6.6 5.4 22.6-6.7 22.6-11 0-16.3-12.9-8.5-20.7 4.7-4.7 9.8-5.4 15.2-1.9z"></path>
            <path class="path3" d="M31 32.8c0 0.4-1 1.2-2.2 1.7-2.6 1.1-3.5 4.9-1.8 7 0.6 0.7 2.6 1.6 4.5 1.9 2.1 0.4 3.5 1.3 3.5 2.1 0 2-5.6 2-6.4 0-0.8-2.3-2.8-1.8-2.4 0.6 0.2 1.2 1.2 2.7 2.3 3.3s2.3 1.5 2.8 2.1c0.5 0.7 1 0.7 1.5 0 0.4-0.6 1.6-1.5 2.7-2.1 2.3-1.3 3.1-4.9 1.5-6.9-0.6-0.7-2.6-1.6-4.5-1.9-2.1-0.4-3.5-1.3-3.5-2.1 0-2 5.6-2 6.4 0 0.9 2.3 2.8 1.8 2.4-0.8-0.2-1.2-1.3-2.6-2.5-3.2-1.3-0.5-2.3-1.3-2.3-1.7 0-0.5-0.4-0.8-1-0.8-0.5 0-1 0.3-1 0.8z"></path>
        </symbol>
        <symbol id="icon-results" viewBox="0 0 64 64">
            <title>results</title>
            <path class="path1" d="M4 4.5c0 3.8-0.3 4.5-2 4.5-1.1 0-2 0.7-2 1.5s0.9 1.5 2 1.5c1.6 0 2 0.7 2 3.5s-0.4 3.5-2 3.5c-1.1 0-2 0.7-2 1.5s0.9 1.5 2 1.5c1.5 0 2 0.7 2 2.9 0 2-0.6 3-2 3.4-2.6 0.7-2.6 2.7 0 2.7 1.6 0 2 0.7 2 3.5s-0.4 3.5-2 3.5c-1.1 0-2 0.7-2 1.5s0.9 1.5 2 1.5c1.6 0 2 0.7 2 3.5s-0.4 3.5-2 3.5c-1.1 0-2 0.7-2 1.5s0.9 1.5 2 1.5c1.7 0 2 0.7 2 4.5v4.5h8c7.3 0 8 0.2 8 2 0 1.1 0.7 2 1.5 2s1.5-0.9 1.5-2c0-1.9 0.7-2 11-2s11 0.1 11 2c0 1.1 0.7 2 1.5 2s1.5-0.9 1.5-2c0-1.8 0.7-2 8-2 6.4 0 8-0.3 8-1.5 0-1.3-3.8-1.5-28.5-1.5h-28.5v-28.5c0-24.7-0.2-28.5-1.5-28.5-1.1 0-1.5 1.2-1.5 4.5z"></path>
            <path class="path2" d="M35.7 9.7c-0.4 0.3-0.7 10.9-0.7 23.5 0 19.6 0.2 22.8 1.5 22.8s1.5-3.1 1.5-22v-22h7v22c0 18.9 0.2 22 1.5 22s1.5-2.6 1.5-17v-17h8v17c0 14.4 0.2 17 1.5 17s1.5-2.7 1.5-18.5v-18.5h-11v-10h-5.8c-3.2 0-6.2 0.3-6.5 0.7z"></path>
            <path class="path3" d="M9.7 28.6c-0.4 0.4-0.7 6.7-0.7 14.1 0 11.2 0.2 13.3 1.5 13.3s1.5-2.1 1.5-12.5v-12.5h8v12.5c0 10.4 0.2 12.5 1.5 12.5 1.2 0 1.5-1.5 1.5-7.5v-7.5h7v7.5c0 6 0.3 7.5 1.5 7.5s1.5-1.7 1.5-9v-9h-9.9l-0.3-4.8-0.3-4.7-6-0.3c-3.4-0.2-6.4 0-6.8 0.4z"></path>
        </symbol>
        <symbol id="polygon" viewBox="0 0 32 32">
            <title>polygon</title>
            <path class="path1" d="M16 1.735l14.999 10.898-5.729 17.633h-18.54l-5.729-17.633 14.999-10.898z"></path>
        </symbol>
    </defs>
</svg>
